<?xml version="1.0" encoding="UTF-8"?>
<svg id="_レイヤー_2" data-name="レイヤー 2" xmlns="http://www.w3.org/2000/svg" xmlns:xlink="http://www.w3.org/1999/xlink" viewBox="0 0 493.68 323.31">
  <defs>
    <style>
      .cls-1 {
        stroke: #f8f8f8;
      }

      .cls-1, .cls-2 {
        fill: none;
      }

      .cls-1, .cls-3, .cls-4 {
        stroke-miterlimit: 10;
      }

      .cls-1, .cls-4 {
        stroke-width: 5px;
      }

      .cls-2 {
        filter: url(#drop-shadow-1);
      }

      .cls-3, .cls-5, .cls-4 {
        fill: #333;
      }

      .cls-3, .cls-4 {
        stroke: #333;
      }

      .cls-6 {
        fill: red;
      }
    </style>
    <filter id="drop-shadow-1" filterUnits="userSpaceOnUse">
      <feOffset dx="3" dy="4"/>
      <feGaussianBlur result="blur" stdDeviation="0"/>
      <feFlood flood-color="red" flood-opacity="1"/>
      <feComposite in2="blur" operator="in"/>
      <feComposite in="SourceGraphic"/>
    </filter>
  </defs>
  <g id="_レイヤー_1-2" data-name="レイヤー 1">
    <path class="cls-3" d="m130.43,76.53c13.15,5.87,41.15,12.75,66.68-27.16l11.02-15.97L230.09.97l10.6,19.85L288.97.97l-5.28,30.85h5l41.7,5.57-10.98,15.97,30.44,8.48-23.16,21.98v1l38.13,23.43-24.13,21.57,35,25-23.34,10.32,16.34,27.68-27,5,30,42-40,5,18.16,40.07-33.66.93h.5l-8.75,25.52s-47.9-25.95-49.9-25.95c-.5,12.97-17.46,10.98-16.97,10.48-12.47-4.99-28.44,4.99-19.96,15.47,8.48,10.48-6.49,11.48-6.49,11.48,0,0-41.42-2.49-41.91-4.49-8.98-21.96,15.47-19.46,23.95-10.98,10.98-6.49,8.15-17.13-12.47-21.96-10.32-2.41-12.8-2.1-16.61-8.87,0,0-20.02-3.31-29.25,6.51s-12.25-4.87-12.25-4.87c0,0-3.13-41.37-1.22-42.14,20.54-11.87,21.38,12.69,14.12,22.24,7.91,10,1.34,6.07,20.93,2.48-1.34-5.02-1.47-8.63-1.74-14.78-.94-20.84,19.58-62.36,26.47-75.5,6.89-13.15,10.05-29.28-4.92-42.26-37.8-13.87-50.53-34.73-54.79-46.17"/>
    <polyline class="cls-1" points="266.17 48.58 291.62 61.05 281.34 72.13"/>
    <polyline class="cls-1" points="293.24 98.33 314.7 104.82 304.22 115.8 312.2 120.29 304.22 133.26"/>
    <polyline class="cls-1" points="298.71 222.55 316.18 241.51 301.21 241.51 309.19 258.98 283.74 267.96"/>
    <polyline class="cls-1" points="245.05 97.27 264.52 107.5 254.04 119.73"/>
    <polyline class="cls-1" points="251.54 145.67 269.01 158.65 262.52 165.38 271.5 173.62 261.52 187.09"/>
    <polyline class="cls-1" points="254.79 215.03 271.5 234.99 254.79 241.48"/>
    <polyline class="cls-1" points="215.37 47.37 236.57 34.4 236.57 42.88"/>
    <circle class="cls-6" cx="207.03" cy="82.3" r="15.47"/>
    <circle class="cls-6" cx="205.35" cy="80.61" r="12.12"/>
    <circle class="cls-4" cx="122.8" cy="73.82" r="8.48"/>
    <g class="cls-2">
      <path class="cls-5" d="m77.64,159.71l-15.58,38.33c-2.64,6.45-5.77,11.14-9.4,14.09-3.63,2.95-8.11,4.42-13.45,4.42s-9.53-1.55-13.06-4.66c-3.53-3.11-5.3-6.92-5.3-11.45,0-3.35,1.06-7.63,3.17-12.84l5.22-12.89c1.99-4.88,2.98-8.19,2.98-9.91,0-1.63-.68-3-2.05-4.13-1.37-1.12-3.03-1.68-4.98-1.68-3.19,0-6.1,1.41-8.74,4.22-2.64,2.82-3.96,5.92-3.96,9.3,0,2.02.46,3.6,1.37,4.74.91,1.14,2.51,2.15,4.79,3.03,2.41.94,3.61,2.47,3.61,4.59,0,1.82-.7,3.34-2.1,4.56s-3.14,1.83-5.22,1.83c-4.13,0-7.66-1.72-10.57-5.15-2.91-3.43-4.37-7.59-4.37-12.47,0-7.1,2.66-13.3,7.98-18.6,5.32-5.31,11.55-7.96,18.68-7.96,5.4,0,9.89,1.59,13.45,4.76s5.35,7.17,5.35,11.99c0,3.06-.86,6.69-2.59,10.89l-7.42,18.31c-1.07,2.64-1.61,4.74-1.61,6.3s.54,2.95,1.64,3.98,2.51,1.54,4.27,1.54c2.25,0,4.11-.77,5.59-2.29,1.48-1.53,3.02-4.28,4.61-8.25l16.06-39.5c1.14-2.86,2.31-4.7,3.52-5.52,1.2-.81,3.3-1.22,6.3-1.22h10.55c4.49,0,6.74,1.53,6.74,4.59,0,2.28-.78,4.03-2.34,5.25s-3.78,1.83-6.64,1.83h-6.49Z"/>
      <path class="cls-5" d="m126.08,203.02h7.23c4.52,0,6.79,1.59,6.79,4.79,0,2.15-.8,3.83-2.39,5.05s-3.81,1.83-6.64,1.83h-9.77l-3.61,8.98c-3.94,9.93-8.06,16.93-12.35,21.02-4.3,4.09-9.65,6.13-16.06,6.13-6.05,0-11.11-2.01-15.16-6.03-4.05-4.02-6.08-9.04-6.08-15.06,0-9.51,4.56-16.83,13.67-21.97,5.57-3.09,13.22-4.64,22.95-4.64l7.76-.1,1.66-4.15c-2.47.91-5,1.37-7.57,1.37-4.98,0-9-1.73-12.06-5.2s-4.59-8.03-4.59-13.7h-8.01c-3.65,0-5.47-1.55-5.47-4.64,0-1.99.74-3.65,2.22-5.01,1.48-1.35,3.31-2.03,5.49-2.03h8.35c3.55-7.06,8.03-12.6,13.45-16.6s11.14-6.01,17.16-6.01c4.98,0,9.04,1.46,12.18,4.39s4.71,6.71,4.71,11.33c0,6.51-2.91,11.52-8.74,15.04-3.87,2.34-9.7,3.52-17.48,3.52h-11.13v.98c0,4.17,2.44,6.25,7.32,6.25,2.18,0,4.41-.65,6.69-1.95l2.59-1.51c2.25-1.3,4.17-1.95,5.76-1.95,1.79,0,3.27.54,4.44,1.61s1.76,2.46,1.76,4.15c0,1.04-.46,2.69-1.37,4.93l-3.71,9.18Zm-18.41,11.67c-6.87,0-12.13.65-15.77,1.95-3.39,1.2-6.05,2.94-8.01,5.2-1.95,2.26-2.93,4.76-2.93,7.5,0,2.54.84,4.69,2.51,6.45s3.74,2.64,6.18,2.64c2.96,0,5.64-1.32,8.03-3.96s4.78-6.9,7.15-12.79l2.83-6.98Zm-1.51-45.02h9.47c8.07,0,12.11-2.2,12.11-6.59,0-1.3-.53-2.38-1.59-3.25-1.06-.86-2.4-1.29-4.03-1.29-2.51,0-5.18.99-8.03,2.98-2.85,1.99-5.49,4.7-7.93,8.15Z"/>
      <path class="cls-5" d="m188.94,180.37l-14.65,35.99h33.84c4.53,0,6.79,1.56,6.79,4.69,0,2.21-.8,3.93-2.39,5.15s-3.81,1.83-6.64,1.83h-36.33l-.59,1.37c-2.28,5.08-4.07,8.64-5.37,10.69s-3,4.04-5.08,5.96c-5.44,4.98-11.69,7.47-18.75,7.47-5.73,0-10.46-1.71-14.18-5.13-3.73-3.42-5.59-7.76-5.59-13.04,0-3.29.8-6.37,2.39-9.23,1.6-2.87,3.76-5.1,6.49-6.69,3.55-2.05,8.37-3.08,14.45-3.08h17.24l14.6-35.99h-7.18c-3.65,0-5.47-1.61-5.47-4.83,0-2.12.8-3.79,2.39-5.01s3.81-1.83,6.64-1.83h8.35l2.25-5.52c4.26-10.55,10.78-15.82,19.53-15.82,4.46,0,8.17,1.41,11.13,4.22,2.96,2.82,4.44,6.34,4.44,10.57,0,5.4-2.15,9.79-6.45,13.16s-9.88,5.05-16.75,5.05h-5.13Zm-33.15,47.66h-12.84c-6.38,0-9.57,2.26-9.57,6.79,0,1.86.7,3.41,2.1,4.66,1.4,1.25,3.16,1.88,5.27,1.88,2.9,0,5.69-1.2,8.37-3.59s4.91-5.64,6.67-9.74Zm37.89-59.33h2.25c2.44,0,4.53-.61,6.28-1.83,1.74-1.22,2.61-2.71,2.61-4.47,0-2.6-1.22-3.91-3.66-3.91-2.21,0-4.25,2.28-6.1,6.84l-1.37,3.37Z"/>
      <path class="cls-5" d="m217.72,204.05h5.52c4.1,0,6.15,1.45,6.15,4.35,0,1.99-.72,3.53-2.17,4.64-1.45,1.11-3.48,1.66-6.08,1.66h-7.76c-2.87,0-5.12-.59-6.76-1.76-1.64-1.17-2.47-2.77-2.47-4.79,0-1.07.34-2.44,1.03-4.1l8.06-19.82.54-1.37c1.5-3.68,3.91-5.52,7.23-5.52,1.37,0,2.55.46,3.54,1.37.99.91,1.49,2,1.49,3.27,0,1.04-.44,2.64-1.32,4.79l-6.98,17.29Zm6.45-42.29c1.89,0,3.49.66,4.81,1.98s1.98,2.92,1.98,4.81-.66,3.49-1.98,4.81-2.92,1.98-4.81,1.98-3.49-.66-4.81-1.98-1.98-2.92-1.98-4.81.66-3.49,1.98-4.81,2.92-1.98,4.81-1.98Z"/>
      <path class="cls-5" d="m255.66,177.34h1.51c4.13,0,6.2,1.45,6.2,4.35,0,1.99-.73,3.53-2.2,4.64-1.46,1.11-3.48,1.66-6.05,1.66h-3.56l-6.54,16.06h5.47c4.13,0,6.2,1.45,6.2,4.35,0,1.99-.72,3.53-2.17,4.64-1.45,1.11-3.48,1.66-6.08,1.66h-8.74c-2.47,0-4.44-.57-5.88-1.71-1.45-1.14-2.17-2.69-2.17-4.64,0-1.21.29-2.54.88-4l.93-2.15,5.76-14.21h-.73c-3.65,0-5.47-1.42-5.47-4.25,0-2.02.72-3.59,2.17-4.71,1.45-1.12,3.47-1.68,6.08-1.68h2.25l2.59-6.4.54-1.32c1.53-3.61,3.94-5.42,7.23-5.42,1.33,0,2.48.45,3.44,1.34.96.9,1.44,1.98,1.44,3.25s-.42,2.8-1.27,4.69l-1.81,3.86Z"/>
      <path class="cls-5" d="m274.9,204.05h5.52c4.1,0,6.15,1.45,6.15,4.35,0,1.99-.72,3.53-2.17,4.64-1.45,1.11-3.48,1.66-6.08,1.66h-7.76c-2.87,0-5.12-.59-6.76-1.76-1.64-1.17-2.47-2.77-2.47-4.79,0-1.07.34-2.44,1.03-4.1l8.06-19.82.54-1.37c1.5-3.68,3.91-5.52,7.23-5.52,1.37,0,2.55.46,3.54,1.37.99.91,1.49,2,1.49,3.27,0,1.04-.44,2.64-1.32,4.79l-6.98,17.29Zm6.45-42.29c1.89,0,3.49.66,4.81,1.98s1.98,2.92,1.98,4.81-.66,3.49-1.98,4.81-2.92,1.98-4.81,1.98-3.49-.66-4.81-1.98-1.98-2.92-1.98-4.81.66-3.49,1.98-4.81,2.92-1.98,4.81-1.98Z"/>
      <path class="cls-5" d="m315.38,177.34h6.74c4.13,0,6.2,1.45,6.2,4.35,0,1.99-.72,3.53-2.17,4.64-1.45,1.11-3.48,1.66-6.08,1.66h-8.98l-21.92,54.05c-1.82,4.46-4.36,6.69-7.62,6.69-1.43,0-2.64-.44-3.61-1.32s-1.46-1.97-1.46-3.27c0-.95.42-2.49,1.27-4.64l20.95-51.51h-3.32c-4.13,0-6.2-1.42-6.2-4.25,0-2.02.72-3.59,2.17-4.71,1.45-1.12,3.47-1.68,6.08-1.68h5.57l6.2-15.28c2.08-5.08,4.58-8.68,7.5-10.82,2.91-2.13,6.81-3.2,11.69-3.2h5.57c4.17,0,6.25,1.43,6.25,4.3,0,2.05-.73,3.65-2.2,4.79-1.46,1.14-3.5,1.71-6.1,1.71h-1.46c-2.73,0-4.89.55-6.47,1.66-1.58,1.11-2.91,2.98-3.98,5.62l-4.59,11.23Z"/>
      <path class="cls-5" d="m356.45,204.05h5.66c2.25,0,3.84.33,4.79,1,.94.67,1.42,1.77,1.42,3.3,0,1.99-.72,3.54-2.17,4.66-1.45,1.12-3.48,1.69-6.08,1.69h-8.74c-2.73,0-4.56-1.06-5.47-3.17-1.79,2.12-4.04,3.17-6.74,3.17h-7.13c-2.87,0-5.24-.9-7.13-2.69-1.89-1.79-2.83-4.05-2.83-6.79,0-1.56.42-3.39,1.27-5.47l6.64-16.31c1.86-4.53,4.39-6.79,7.62-6.79,1.4,0,2.59.45,3.56,1.34.98.9,1.46,1.99,1.46,3.3,0,.98-.26,2.1-.78,3.37l-.54,1.32-5.13,12.55-.54,1.46c-.29.85-.46,1.48-.49,1.9-.07,1.46.88,2.2,2.83,2.2,4.04,0,6.72-1.63,8.06-4.88l6.1-15.04c1.82-4.56,4.39-6.84,7.71-6.84,1.37,0,2.54.46,3.52,1.37.98.91,1.46,2,1.46,3.27,0,1.01-.42,2.57-1.27,4.69l-7.08,17.38Z"/>
      <path class="cls-5" d="m383.2,204.05h5.13c4.13,0,6.2,1.45,6.2,4.35,0,1.99-.72,3.53-2.17,4.64-1.45,1.11-3.48,1.66-6.08,1.66h-8.79c-2.41,0-4.31-.57-5.71-1.71-1.4-1.14-2.1-2.67-2.1-4.59,0-1.01.47-2.69,1.42-5.03l19.73-48.54.54-1.32c1.5-3.65,3.89-5.47,7.18-5.47,1.37,0,2.53.46,3.49,1.37.96.91,1.44,2,1.44,3.27,0,.98-.24,2.08-.73,3.32l-.54,1.32-18.99,46.73Z"/>
      <path class="cls-5" d="m477.57,159.71l-17.58,43.31h6.59c4.49,0,6.74,1.59,6.74,4.79,0,2.15-.79,3.83-2.37,5.05-1.58,1.22-3.78,1.83-6.62,1.83h-9.13l-3.56,8.98c-3.97,9.93-8.11,16.93-12.4,21.02-4.3,4.09-9.65,6.13-16.06,6.13-6.05,0-11.1-2.02-15.14-6.05-4.04-4.04-6.05-9.07-6.05-15.09,0-4.56,1.2-8.74,3.59-12.55s5.77-6.93,10.13-9.38c5.57-3.09,13.26-4.64,23.1-4.64l7.76-.1,1.66-4.05c-1.73.85-3.63,1.27-5.71,1.27-4.62,0-8.46-1.42-11.5-4.25-3.04-2.83-4.57-6.4-4.57-10.69,0-2.25.75-5.5,2.25-9.77l1.07-2.88,1.03-2.88c.75-2.05,1.12-3.76,1.12-5.13,0-1.56-.68-2.9-2.05-4-1.37-1.11-3.01-1.66-4.93-1.66-3.12,0-5.98,1.43-8.57,4.3-2.59,2.86-3.88,6.01-3.88,9.42,0,1.95.44,3.49,1.32,4.61s2.44,2.11,4.69,2.96c2.34.91,3.52,2.41,3.52,4.49,0,1.86-.7,3.4-2.1,4.64-1.4,1.24-3.14,1.86-5.22,1.86-4.13,0-7.66-1.73-10.57-5.18-2.91-3.45-4.37-7.62-4.37-12.5,0-7.1,2.68-13.29,8.03-18.58,5.35-5.29,11.61-7.93,18.77-7.93,5.37,0,9.81,1.61,13.33,4.83s5.27,7.29,5.27,12.21c0,2.34-.41,4.62-1.22,6.84l-1.9,5.18c-1.21,3.22-1.81,5.52-1.81,6.88,0,1.53.57,2.83,1.71,3.91,1.14,1.07,2.51,1.61,4.1,1.61,2.38,0,4.38-.83,6.01-2.49,1.63-1.66,3.29-4.56,4.98-8.69l9.42-23.24c.91-2.25,2.03-3.82,3.34-4.71,1.32-.9,3.2-1.34,5.64-1.34h11.52c4.49,0,6.74,1.53,6.74,4.59,0,2.25-.79,3.99-2.37,5.22-1.58,1.24-3.8,1.86-6.67,1.86h-7.08Zm-35.74,54.98c-6.84,0-12.08.65-15.72,1.95-3.42,1.2-6.1,2.94-8.03,5.2-1.94,2.26-2.91,4.76-2.91,7.5,0,2.54.84,4.69,2.51,6.45,1.68,1.76,3.72,2.64,6.13,2.64,2.96,0,5.64-1.32,8.03-3.96s4.78-6.9,7.15-12.79l2.83-6.98Z"/>
    </g>
  </g>
</svg>